<svg width="25" height="24" viewBox="0 0 25 24" fill="none" xmlns="http://www.w3.org/2000/svg">
<g id="mdi:kids-room">
<path id="Vector" d="M16.4514 19.13C15.6214 19.13 14.9514 18.29 14.9514 17.25C14.9514 16.22 15.6214 15.38 16.4514 15.38C17.2814 15.38 17.9514 16.22 17.9514 17.25C17.9514 18.29 17.2814 19.13 16.4514 19.13ZM12.7014 11.25C11.4614 11.25 10.4514 10.41 10.4514 9.38C10.4514 8.34 11.4614 7.5 12.7014 7.5C13.9414 7.5 14.9514 8.34 14.9514 9.38C14.9514 10.41 13.9414 11.25 12.7014 11.25ZM8.95143 19.13C8.12143 19.13 7.45143 18.29 7.45143 17.25C7.45143 16.22 8.12143 15.38 8.95143 15.38C9.78143 15.38 10.4514 16.22 10.4514 17.25C10.4514 18.29 9.78143 19.13 8.95143 19.13ZM12.7014 8.25C13.1114 8.25 13.4514 8.59 13.4514 9C13.4514 9.41 13.1114 9.75 12.7014 9.75C12.2914 9.75 11.9514 9.41 11.9514 9C11.9514 8.59 12.2914 8.25 12.7014 8.25ZM19.4514 12C19.1314 12 18.8214 12.07 18.5414 12.2C18.0614 11.59 17.4114 11.07 16.6314 10.67C17.2014 9.87 17.5414 8.9 17.5414 7.85V7.79C18.6314 7.56 19.4514 6.59 19.4514 5.42C19.4514 4.09 18.3614 3 17.0314 3C16.3414 3 15.7014 3.29 15.2814 3.75C14.5101 3.26019 13.6152 3.00007 12.7014 3.00007C11.7877 3.00007 10.8928 3.26019 10.1214 3.75C9.70143 3.29 9.06143 3 8.37143 3C7.04143 3 5.95143 4.09 5.95143 5.42C5.95143 6.58 6.77143 7.55 7.85143 7.79V7.85C7.85143 8.9 8.20143 9.88 8.76143 10.67C7.99143 11.07 7.34143 11.59 6.86143 12.2C6.51969 12.0461 6.14479 11.9803 5.77107 12.0088C5.39735 12.0373 5.03675 12.1592 4.72232 12.3631C4.40788 12.5671 4.14965 12.8468 3.97129 13.1764C3.79294 13.5061 3.70015 13.8752 3.70143 14.25C3.70143 15.5 4.70143 16.5 5.95143 16.5H6.01143C5.97143 16.74 5.95143 17 5.95143 17.25C5.95143 19.32 7.29143 21 8.95143 21C9.96143 21 10.8514 20.37 11.4014 19.41C11.8214 19.47 12.2514 19.5 12.7014 19.5C13.1514 19.5 13.5814 19.47 14.0014 19.41C14.5514 20.37 15.4414 21 16.4514 21C18.1114 21 19.4514 19.32 19.4514 17.25C19.4514 17 19.4314 16.74 19.3914 16.5H19.4514C20.7014 16.5 21.7014 15.5 21.7014 14.25C21.7014 13 20.7014 12 19.4514 12Z" fill="black"/>
</g>
</svg>
